<?xml version="1.0" encoding="UTF-8"?>
<svg width="645px" height="300px" viewBox="0 0 645 300" version="1.1" xmlns="http://www.w3.org/2000/svg" xmlns:xlink="http://www.w3.org/1999/xlink">
    <!-- Generator: Sketch 50.2 (55047) - http://www.bohemiancoding.com/sketch -->
    <title>höhenprofil</title>
    <desc>Created with Sketch.</desc>
    <defs></defs>
    <g id="höhenprofil" stroke="none" stroke-width="1" fill="none" fill-rule="evenodd">
        <g id="grid" transform="translate(73.740955, 65.241345)" stroke="#D3D3D3" stroke-linejoin="round" stroke-width="0.8">
            <path d="M492.050941,176.555191 L0.744403844,176.555191" id="Stroke-22"></path>
            <path d="M492.050941,147.645569 L0.744403844,147.645569" id="Stroke-24"></path>
            <path d="M492.050941,117.703461 L0.744403844,117.703461" id="Stroke-26"></path>
            <path d="M492.050941,88.7938387 L0.744403844,88.7938387" id="Stroke-28"></path>
            <path d="M492.050941,59.9199625 L0.744403844,59.9199625" id="Stroke-30"></path>
            <path d="M493.539748,30.6251674 L0.744403844,30.6251674" id="Stroke-32"></path>
            <path d="M492.050941,1.33037227 L0.744403844,1.33037227" id="Stroke-34"></path>
        </g>
        <g id="y_legend" transform="translate(40.039074, 58.111111)" fill="#D3D3D3" font-family="LucidaGrande, Lucida Grande" font-size="10" font-weight="normal">
            <text id="175">
                <tspan x="0.0205203202" y="186.812247">175</tspan>
            </text>
            <text id="200">
                <tspan x="0.0205203202" y="157.344046">200</tspan>
            </text>
            <text id="225">
                <tspan x="0.0205203202" y="127.875846">225</tspan>
            </text>
            <text id="250">
                <tspan x="0.0205203202" y="98.4076447">250</tspan>
            </text>
            <text id="275">
                <tspan x="0.0205203202" y="68.9394437">275</tspan>
            </text>
            <text id="300">
                <tspan x="0.0205203202" y="39.4712428">300</tspan>
            </text>
            <text id="325">
                <tspan x="0.0205203202" y="10.0030419">325</tspan>
            </text>
        </g>
        <g id="Lines" transform="translate(102.677279, 49.367586)" stroke-linecap="square" stroke-linejoin="round" stroke-width="1.5">
            <polyline id="auto" stroke="#D7191C" points="0.325852133 150.072439 6.58392104 150.253947 7.15283531 150.924081 7.72175107 151.249351 9.42849687 151.456174 10.5663284 152.034535 11.7041584 152.960184 12.8419885 153.815048 13.4109042 154.903677 15.11765 156.864127 15.6865658 156.957719 16.2554815 156.864456 16.8243958 157.326094 18.5311431 157.598787 21.3757189 157.547998 21.9446347 157.838826 23.0824647 157.981736 24.2202962 158.322804 24.7892105 160.398029 26.4959563 161.872581 27.0648721 162.795386 28.7716179 164.232272 29.3405336 165.736897 31.0472794 166.554395 32.1851109 166.67414 32.7540252 166.57669 34.460771 167.051531 36.1675168 167.88743 36.7364326 168.484045 37.8742641 169.163063 38.4431784 169.849475 40.1499242 170.615307 41.2877557 170.384374 42.4255857 170.270478 43.5634172 170.204104 44.7012473 169.914384 45.270163 169.09711 46.9769088 168.335535 48.1147389 168.41421 48.6836546 168.732644 49.8214847 168.965418 50.3904004 169.134287 51.5282319 169.1407 52.666062 168.43231 53.2349777 168.242054 53.803892 166.378264 54.3728078 163.934136 56.0795536 162.892379 56.6484693 161.94612 57.2173851 161.488557 58.9241309 158.738232 60.0619609 158.188249 60.6308767 155.865086 61.1997924 154.618864 61.7687067 148.355638 63.4754525 145.784881 64.0443683 141.679816 64.613284 141.37294 65.1821998 140.136917 65.7511141 133.137361 66.3200298 131.160794 67.4578599 129.677464 69.1646071 128.116115 70.3024372 127.852515 73.1470145 128.229715 73.7159288 128.402706 74.2848445 128.313617 74.8537603 127.979401 75.4226746 127.83953 75.9915903 127.248092 76.5605061 127.189868 77.1294218 126.757572 77.6983361 126.597999 78.2672519 126.224812 83.956405 124.517336 88.5077281 123.614089 90.2144739 123.079807 93.6279655 122.485634 97.0414571 122.207154 98.1792886 121.967887 98.7482029 121.505474 99.3171187 121.362849 101.023864 120.652858 102.161696 120.65195 102.73061 120.953431 103.299526 121.42032 103.868442 122.126684 104.437358 123.075203 105.006272 127.710425 106.713018 132.426912 107.281933 133.142519 108.419763 135.2504 109.557595 138.290262 110.126511 141.495966 110.695425 143.221893 111.264341 147.601869 111.833256 150.481384 112.971087 152.45271 113.540002 155.601151 114.108918 156.327562 114.677832 157.429657 115.246748 158.07456 115.815664 159.892605 116.384578 160.549916 116.953494 161.605153 118.091325 162.818476 118.66024 164.365641 120.366985 165.310588 120.935901 165.136745 122.073733 165.612123 122.642647 165.952248 123.211563 166.788356 124.918309 167.99642 126.056139 167.806568 127.19397 166.635202 127.762886 165.937445 128.900716 163.655051 129.469632 163.16989 130.038546 161.612582 130.607462 158.861628 131.176377 158.347912 131.745293 156.677316 132.314208 156.01087 132.883123 158.341378 134.020953 158.338342 135.158785 158.31964 135.727701 158.596986 136.296615 159.520407 136.865531 159.806831 137.434446 163.722145 138.003361 163.565151 138.572276 163.263695 139.710106 161.803567 140.279022 159.729738 140.847938 159.302109 141.416854 158.480293 143.692514 157.087792 145.399261 156.695213 148.812753 156.579065 149.381668 156.669236 149.950583 157.10625 150.519498 157.300751 152.226244 157.389148 152.79516 158.157202 154.501906 163.164551 155.070822 167.597268 155.639736 168.919263 156.208652 172.155909 156.777567 170.447307 157.346482 174.405505 157.915397 176.52421 158.484313 179.70786 159.053229 181.401331 159.622143 182.065093 160.191059 182.402363 160.759975 183.40135 161.897805 184.307266 163.604551 186.342779 164.173466 186.452056 164.742382 186.758913 165.311296 186.48262 165.880212 187.407976 168.155874 187.626703 168.724789 187.15315 169.293704 187.025824 169.862619 187.064094 170.431535 187.642184 171.569365 193.85802 173.276111 187.161567 173.845027 185.697191 174.413943 184.815405 174.982857 184.546952 175.551773 182.873304 176.120688 182.578305 178.39635 182.335478 178.965264 182.350475 179.53418 181.692666 180.672011 179.711903 181.240926 178.48773 181.809842 176.087352 183.516587 182.376425 184.085503 183.203747 186.361165 184.320547 187.498995 184.68514 188.06791 184.684765 188.636825 184.532843 189.20574 184.717554 189.774656 184.490554 190.343572 183.661577 192.050318 184.24022 192.619232 184.692708 193.757064 186.990727 194.325979 186.043819 194.894894 185.484562 196.032725 186.401754 196.601639 187.150121 197.170555 180.142019 197.739471 193.879084 198.308385 195.135793 198.877301 197.070104 199.446217 197.157127 200.584047 196.591019 201.152963 196.106354 202.290793 194.138083 203.99754 190.888408 205.13537 188.211973 206.2732 187.507196 206.842116 186.942912 207.411031 185.294693 207.979947 182.944098 208.548861 181.680921 210.255607 174.459634 210.824523 172.744783 211.393439 162.022604 213.100185 159.449231 213.6691 157.929676 215.375846 155.106081 216.513676 151.647673 217.082592 148.747541 217.651508 147.8436 218.220422 146.264702 218.789338 144.117863 219.358253 140.423379 222.202829 131.755645 223.340661 129.469903 223.909575 128.922796 226.754152 124.531929 227.891982 123.632032 228.460898 123.347931 229.598728 123.462427 230.167644 123.378897 231.305476 122.363376 231.87439 121.283989 233.012221 119.908089 234.150051 118.287029 234.718967 116.230769 235.287883 115.459962 235.856797 115.377923 236.425713 115.151798 236.994629 113.409469 237.563543 113.325677 238.132459 116.506514 239.27029 118.969057 239.839205 121.767682 240.40812 122.587103 240.977036 123.952407 241.54595 126.12736 243.821612 131.455184 244.390528 137.187531 245.528358 138.787769 246.097273 139.892713 246.666189 140.50305 247.235103 144.894539 247.804019 146.029746 248.372935 148.696428 250.079681 151.733013 250.648597 153.758052 251.217511 154.653754 251.786427 156.653068 252.355342 157.653808 254.631004 160.061603 255.199918 161.080614 255.768834 162.601448 256.906665 166.803936 257.47558 167.427974 259.182326 172.255661 260.320157 173.982873 262.026903 176.597226 262.595819 178.424273 263.164733 179.315283 263.733649 180.952597 266.00931 183.180958 266.578226 184.161006 267.14714 184.673624 267.716056 186.030221 268.853886 187.085778 269.422802 187.484988 269.991718 188.40882 271.129548 189.014549 272.267379 189.259581 274.543039 189.401524 277.387616 189.417671 280.801108 189.504072 281.370024 189.636249 281.93894 189.623426 282.507854 189.470796 283.645685 189.583201 285.352431 190.413865 287.628093 191.805054 288.197007 192.246114 288.765923 192.878436 289.903754 193.577008 291.041584 195.292282 292.179414 196.263422 292.74833 196.409811 293.886162 196.444499 294.455076 196.58013 295.592907 197.187262 296.161822 199.808011 297.299653 200.767136 298.437483 201.064872 302.419891 201.128386 304.695552 201.163401 305.833382 201.538393 306.402298 201.950256 307.540129 202.246552 312.091451 202.299215 322.331927 202.303713 323.469757 202.683107 325.176505 203.247607 325.745419 203.416711 330.296742 203.470429 332.572404 203.471139 333.141318 203.295223 333.710234 203.453599 334.848065 203.274101 335.985895 203.163393 336.554811 202.934967 337.692641 203.392238 340.537218 203.416413 350.777693 203.206418 351.346609 201.949635 351.915525 200.059739 352.48444 202.847432 353.053355 203.124272 353.62227 202.093702 354.191186 203.025929 354.7601 200.307175 355.329016 202.764872 355.897932 203.081802 359.880339 203.193547 360.449255 202.872056 361.587085 202.794457 362.724915 198.350691 363.293831 197.179459 363.862747 193.66576 364.431661 192.494528 365.000577 189.989709 365.569492 204.454848 367.845154 204.295635 368.982984 204.015795 370.120816 203.913716 370.68973 203.671117 371.827561 203.52956 372.965391 203.649328 374.672137 203.659602 380.930206 203.471215 386.619359 203.434188 388.326105 203.166983 390.032851 202.942567 390.601767 202.723776 391.739598 202.616878 392.877428 202.505977 394.015258 202.300523 400.842243 202.20108 404.82465 201.709115 407.100312 201.498283 408.238142 201.244048 409.375972 201.12877 420.75428 201.128749 421.89211 200.929838 425.305601 200.606694 427.012347 200.598128 428.150179 200.757953 431.56367 200.609003 436.683908 199.958213 454.889199 199.957517 454.889199 199.957517"></polyline>
            <polyline id="e-bike" stroke="#ABD9E9" points="0.325852133 149.610708 2.60151369 149.488788 4.30825948 149.182049 4.87717375 149.011342 5.44608952 148.604169 6.58392104 148.235264 7.15283531 147.750294 7.72175107 146.995809 8.29066684 146.614853 8.85958111 146.057805 9.99741263 145.329037 10.5663284 144.823648 11.1352427 143.474362 13.4109042 141.066275 14.5487357 140.025158 15.11765 139.058145 15.6865658 138.543364 16.2554815 137.834395 17.3933116 137.248868 17.9622273 135.74136 18.5311431 135.192275 19.1000574 135.002555 19.6689731 134.539376 21.3757189 134.277283 22.513549 133.893525 24.2202962 133.204112 25.3581263 133.009579 26.4959563 132.561799 27.6337878 132.029323 28.7716179 131.820981 29.9094494 130.515314 30.4783637 129.11823 31.0472794 128.148665 32.1851109 127.49722 32.7540252 127.246198 33.322941 126.806969 33.8918567 124.72795 34.460771 124.244729 35.0296868 123.435491 36.7364326 122.502117 37.3053483 122.247229 37.8742641 121.480613 38.4431784 120.422142 39.5810099 119.255154 40.1499242 118.668234 41.2877557 116.118031 41.8566714 115.716674 42.4255857 112.87461 42.9945015 112.175865 43.5634172 111.050973 44.1323315 109.550554 44.7012473 108.604061 46.4079931 106.816787 46.9769088 105.948508 48.1147389 105.151495 49.2525704 104.059441 49.8214847 102.257005 50.9593162 101.163806 51.5282319 100.505286 52.0971462 99.0854677 53.2349777 98.3105983 54.3728078 97.3444045 54.9417235 96.5539561 56.6484693 95.2170226 57.7862994 94.6093734 58.3552151 94.3491376 59.4930466 93.1271713 60.6308767 92.7670034 62.3376225 91.9313888 62.9065382 91.3161121 63.4754525 91.1393047 64.0443683 91.3688005 64.613284 91.3853506 65.1821998 91.6399238 65.7511141 92.0594819 66.3200298 92.7042479 66.8889456 92.9588129 67.4578599 95.2224107 68.0267756 95.9833925 68.5956914 97.3988452 69.1646071 97.3990011 70.3024372 95.738584 70.8713529 95.2618628 71.4402672 94.0634012 72.5780987 93.4098571 73.1470145 93.1721394 74.2848445 92.1763965 74.8537603 91.1531303 75.9915903 90.7955589 77.1294218 89.5574864 79.9739977 87.8400517 80.5429134 87.4381912 81.1118277 86.6118656 82.2496592 83.4966851 82.818575 83.05503 83.3874893 82.2992669 83.956405 81.9673592 84.5253208 81.4014272 85.0942351 80.572794 86.8009823 79.65427 87.3698966 78.9736144 88.5077281 78.537272 89.0766424 77.785091 90.2144739 74.310333 90.7833897 71.3199608 91.352304 70.6674601 92.4901355 69.8617846 93.0590498 69.206644 94.1968813 69.25664 95.3347113 68.7820343 95.9036271 68.3945238 96.4725428 67.137898 97.0414571 64.9678019 97.6103729 63.5074018 98.7482029 57.9949762 99.3171187 57.3189584 99.8860344 56.3489503 101.023864 55.119562 102.161696 52.0314311 102.73061 51.8864329 103.299526 52.0942847 105.006272 53.4229612 105.575188 53.0703991 106.144103 52.4913598 106.713018 53.2770672 107.281933 54.9128144 107.850849 55.0146392 108.419763 44.248092 108.988679 42.9698594 109.557595 40.7147879 110.695425 39.5326308 112.971087 38.2030184 113.540002 38.0803958 114.677832 38.150655 116.384578 31.2282174 117.52241 29.620947 118.091325 29.7833467 118.66024 29.7628462 119.229155 26.1790848 119.798071 25.7331314 120.366985 24.7147198 120.935901 22.7441029 122.073733 21.7824767 122.642647 20.4367827 123.211563 18.6499619 124.349393 17.0432962 124.918309 16.8000161 125.487224 15.4958525 126.056139 13.6805374 126.625054 12.4301593 127.19397 12.0353422 127.762886 11.8221241 128.3318 11.8393676 128.900716 12.0147963 129.469632 12.3360755 130.038546 14.997479 130.607462 15.4515955 131.176377 15.6868405 131.745293 19.8023728 132.314208 19.2809146 132.883123 19.2749125 134.589869 19.5917119 135.158785 18.9636921 135.727701 18.6621342 136.296615 16.3832051 136.865531 9.62156871 137.434446 8.41900394 138.572276 8.39508336 139.141192 8.28558263 139.710106 8.35825666 141.985768 8.07507139 143.1236 8.44653341 144.26143 9.68461734 144.830345 9.71626652 145.399261 9.01541583 145.968175 6.2600142 147.674921 1.92018639 149.381668 0.457829577 150.519498 1.30264133 151.657329 2.65952012 152.226244 3.51011413 152.79516 5.28863048 154.501906 7.85215351 155.070822 8.62605078 156.208652 11.9847756 156.777567 11.7782427 157.915397 11.0727604 158.484313 10.9167817 159.053229 11.1141743 159.622143 11.6048006 160.191059 13.9707433 161.328889 10.6606523 161.897805 10.1793035 162.466721 9.90320496 163.035636 28.8059361 163.604551 29.8286079 165.880212 32.4181485 167.018044 36.6595376 169.293704 39.3153538 169.862619 39.7262122 170.431535 35.0022031 171.00045 39.8331464 171.569365 40.283429 173.276111 40.0384399 174.413943 38.4017721 174.982857 36.4369313 175.551773 35.9903505 176.120688 34.7353697 177.827434 33.7009745 178.39635 33.4962672 178.965264 32.6092139 180.103096 32.0078103 180.672011 31.754655 181.809842 31.5878476 182.947672 30.804228 184.085503 29.493695 184.654417 28.3372232 185.223333 27.7308432 185.792249 26.0884943 186.361165 25.8418747 186.930079 25.7721439 187.498995 25.8355888 188.06791 26.405916 188.636825 24.9558441 189.20574 27.1553932 189.774656 27.4283329 190.343572 27.9376042 190.912486 28.20687 191.481402 29.0706539 192.050318 29.3695234 192.619232 30.1957686 193.757064 30.3776668 194.894894 30.4506989 195.463809 30.6684052 196.032725 31.0256092 197.739471 31.2301534 198.877301 31.7225249 200.015132 31.9131878 202.290793 32.8205146 202.859708 34.0200474 203.99754 34.7306288 204.566454 35.4963537 205.13537 35.8013945 205.704286 35.9390852 206.2732 35.9030572 207.411031 34.6108483 207.979947 33.1203418 209.117777 31.6023915 209.686693 29.0921152 210.824523 28.6693724 211.393439 28.4470851 211.962355 28.6747894 213.6691 30.1464341 215.375846 33.7785701 215.94476 36.3556402 216.513676 37.6169109 217.082592 37.9226401 217.651508 38.4234233 218.220422 38.5110829 218.789338 38.3484469 219.358253 37.7493818 221.064999 36.9168363 221.633915 35.9415351 222.202829 33.9686046 222.771745 32.608765 223.340661 31.8848885 223.909575 30.5720108 224.478491 30.0319798 225.047407 28.4362007 226.185237 26.7912377 227.323068 26.2959292 227.891982 25.7092903 229.029814 25.5106831 230.167644 25.448942 230.73656 25.8779532 231.305476 25.9522701 231.87439 25.8797581 232.443306 25.4899514 234.150051 25.4465684 243.252696 25.4931516 243.821612 25.6112664 244.390528 25.8609965 248.372935 26.0216924 251.217511 25.9577449 252.355342 26.5278502 254.062088 27.0260823 255.199918 28.2425625 255.768834 29.631268 257.47558 30.9181786 258.044495 31.4431993 258.613411 32.4975491 259.751241 33.1895061 260.320157 33.3604837 260.889071 31.4194128 261.457987 33.7931708 262.026903 34.9404558 262.595819 35.4064557 263.733649 38.669721 264.302564 39.3533106 264.871479 41.0897567 266.00931 43.3451253 268.853886 50.3890895 269.422802 52.7291136 270.560633 54.3317989 271.698463 55.5640273 272.267379 57.3359079 272.836293 57.7332678 273.974125 58.9685849 275.111955 59.5669989 275.680871 60.2567722 276.818701 62.6954023 277.387616 64.1135598 277.956532 51.7660385 278.525447 69.1842105 279.094362 72.4756338 279.663278 74.3804714 280.232194 77.8435751 280.801108 79.5462358 281.370024 83.2327744 282.507854 86.0195559 283.07677 87.4836475 283.645685 87.6134176 284.783515 88.332904 287.059177 92.9557695 287.628093 94.2986421 288.197007 97.1316084 289.334839 99.8667138 289.903754 102.684855 290.472669 104.573515 291.041584 109.695684 291.6105 122.955339 292.179414 108.047929 292.74833 86.6206148 294.455076 64.1842741 295.023992 61.0470111 295.592907 56.5213274 296.161822 53.6047479 296.730737 52.5576809 297.299653 50.3521296 298.437483 49.4350102 300.144229 48.414549 301.850976 47.8999618 302.988806 47.945579 304.126636 48.2364331 304.695552 48.7433628 305.833382 49.1552161 306.402298 49.8534682 307.540129 50.6292767 308.67796 51.7067762 309.81579 53.028366 310.384705 54.872514 310.953621 56.0223584 311.522537 58.5968608 314.367113 65.7733474 314.936028 69.3725834 316.073858 73.6377259 316.642774 76.0837822 317.21169 84.5752012 318.918436 93.2849611 319.48735 98.8145528 320.056266 172.342172 320.625182 181.137625 321.194097 168.374583 321.763012 180.625174 322.900843 159.021984 324.607589 138.728483 325.176505 173.382182 325.745419 183.658899 326.314335 174.551836 326.88325 182.733267 328.021081 184.083832 330.296742 183.651608 330.865658 184.475315 332.572404 185.416467 333.710234 185.734074 335.416979 185.703459 335.985895 185.607583 338.830473 184.472069 339.399387 183.844629 339.968303 183.739091 340.537218 183.773011 342.243964 186.148848 342.81288 185.362654 343.381794 185.262107 343.95071 185.298585 345.08854 185.834521 345.657456 186.460331 346.226371 187.316768 346.795287 187.861246 347.364202 187.975231 349.070947 187.559429 350.208779 187.57839 351.915525 187.92464 352.48444 188.220574 353.053355 188.305913 353.62227 187.372238 354.7601 186.644652 356.466848 186.460192 357.035762 186.268987 358.173594 185.134223 358.742508 184.283635 359.311424 184.339802 359.880339 184.621113 361.018169 185.770262 363.293831 186.625604 367.276238 186.211457 368.982984 184.98584 369.5519 183.969923 370.68973 182.959085 372.396476 181.832354 372.965391 181.004046 373.534307 179.464709 374.672137 177.575036 375.241053 176.954252 376.378883 176.306617 376.947799 176.834933 377.516715 178.096814 379.22346 179.650998 379.792376 181.257368 380.930206 182.3746 381.499122 184.046299 382.068036 184.591844 382.636952 186.165662 383.774783 187.444635 384.343698 188.705712 385.481529 189.958926 386.050444 191.09061 387.188275 191.693755 388.895021 192.162363 389.463937 192.560914 391.170682 192.679739 394.015258 192.787426 395.15309 193.004345 396.859836 193.166859 399.135497 196.032627 401.980073 197.156899 404.82465 197.424523 405.96248 196.87526 407.100312 196.614604 408.807058 196.51553 410.513803 196.589848 411.651633 197.210438 412.789465 197.816428 413.358379 198.077767 413.927295 198.537028 415.634041 198.764974 420.75428 198.78895 423.598855 198.89951 424.167771 199.100909 429.288009 199.231519 431.56367 199.175643 433.270416 199.666629 434.408247 199.592722 435.546078 199.477966 440.666315 199.923626 454.889199 200.014903 454.889199 200.014903"></polyline>
            <polyline id="fahrrad" stroke="#2C7BB6" points="0.325852133 148.148982 0.894767896 148.132979 2.03259793 147.565262 2.60151369 147.585066 3.73934372 147.330074 4.30825948 147.156442 4.87717375 146.855513 5.44608952 146.753852 7.15283531 146.042527 7.72175107 145.552479 8.29066684 144.414473 8.85958111 143.997019 9.42849687 142.837257 9.99741263 142.587152 11.1352427 139.794063 11.7041584 139.283396 12.2730742 138.565633 12.8419885 138.358409 13.4109042 137.811961 13.97982 136.131572 14.5487357 135.852666 15.11765 135.936822 15.6865658 135.569933 16.2554815 135.378672 16.8243958 135.475226 17.3933116 134.822124 17.9622273 134.800494 18.5311431 135.00008 19.1000574 135.482564 19.6689731 134.597924 20.2378889 135.905368 20.8068032 135.540835 21.3757189 136.190067 22.513549 136.210409 23.0824647 134.938474 24.2202962 133.514658 24.7892105 132.709938 25.3581263 133.145681 25.927042 133.043925 27.0648721 132.430792 27.6337878 131.884873 28.2027036 132.00553 28.7716179 131.994438 29.3405336 131.765567 29.9094494 131.822592 30.4783637 131.381423 31.0472794 131.957942 31.6161952 131.617256 32.1851109 132.060474 33.322941 131.732974 34.460771 132.568279 35.0296868 133.23306 35.5986025 133.597959 36.1675168 133.005477 37.3053483 137.609521 37.8742641 140.425115 38.4431784 141.340326 39.5810099 149.357941 40.1499242 150.191455 40.7188399 151.897558 41.2877557 151.875803 41.8566714 151.529359 42.4255857 151.340602 43.5634172 152.857629 44.1323315 152.795182 44.7012473 152.850777 45.270163 152.096521 46.4079931 152.098471 46.9769088 151.599123 47.5458246 151.35422 48.1147389 151.349449 48.6836546 151.145515 49.2525704 148.9514 49.8214847 148.79878 50.9593162 148.240963 51.5282319 146.999772 52.0971462 146.695426 53.2349777 146.521851 53.803892 146.021751 54.3728078 145.867402 54.9417235 144.617647 55.5106393 144.692066 56.6484693 144.393361 57.2173851 142.469266 57.7862994 142.81693 58.3552151 142.26544 58.9241309 141.111561 59.4930466 140.699514 60.0619609 140.555446 60.6308767 139.971844 61.1997924 139.788679 62.9065382 137.124843 63.4754525 136.759399 64.0443683 135.998443 64.613284 135.688579 66.3200298 135.231669 66.8889456 135.003587 68.5956914 133.40434 69.7335214 133.270305 70.8713529 132.423749 71.4402672 132.27123 72.009183 131.754774 73.7159288 130.877605 74.2848445 130.699582 75.4226746 131.194807 75.9915903 130.930792 76.5605061 131.401591 78.8361676 131.979222 79.4050819 131.746257 81.1118277 128.840809 81.6807435 128.856885 83.3874893 128.146362 84.5253208 127.876285 85.0942351 127.357815 85.6631508 127.268415 86.2320666 126.370495 86.8009823 125.968792 87.3698966 124.699537 87.9388124 124.73033 88.5077281 124.574249 89.6455582 123.576711 90.2144739 122.623278 90.7833897 120.881064 91.9212197 120.366249 93.0590498 119.896849 93.6279655 119.855495 94.1968813 119.577438 94.7657956 119.462274 95.3347113 118.62039 95.9036271 118.222982 96.4725428 118.145681 97.0414571 117.77059 98.1792886 118.541756 98.7482029 118.55355 99.3171187 118.791318 101.023864 122.687522 101.59278 125.921592 103.868442 129.744914 104.437358 133.70821 105.006272 134.827004 106.144103 138.94231 106.713018 142.836285 107.281933 144.09113 107.850849 144.521767 108.988679 142.90675 109.557595 144.680203 110.126511 144.451604 111.264341 143.096093 112.402171 141.650955 112.971087 140.481538 113.540002 140.391847 114.108918 138.600581 115.246748 138.1422 116.953494 138.065398 117.52241 138.358063 118.66024 138.513002 119.229155 138.740352 120.366985 138.665548 120.935901 138.854245 121.504817 139.292029 122.073733 140.613148 123.211563 146.105958 123.780479 148.13391 124.349393 147.816949 126.056139 148.500431 126.625054 149.766177 127.19397 149.187408 127.762886 150.803944 128.3318 150.803944 128.900716 150.402021 129.469632 153.169071 130.038546 153.311434 130.607462 153.329298 131.176377 154.28661 132.314208 154.417028 133.452039 154.047135 134.020953 152.634419 134.589869 152.50472 135.158785 152.151937 135.727701 151.55465 136.296615 151.56329 138.003361 149.10051 138.572276 148.442193 139.141192 146.239286 139.710106 146.089359 140.279022 142.903938 140.847938 142.221886 141.416854 138.832847 141.985768 137.937511 142.554684 137.427398 143.1236 137.268696 143.692514 136.781538 144.26143 136.636413 144.830345 136.145532 145.399261 135.966083 147.106007 134.948306 147.674921 134.210875 148.243837 132.657796 148.812753 132.148164 149.381668 131.85114 150.519498 130.625488 151.088414 129.122451 151.657329 128.847699 152.226244 128.052622 152.79516 127.746679 153.364074 127.599579 153.93299 126.686888 154.501906 126.314519 155.070822 126.212692 155.639736 124.701954 156.208652 123.748583 156.777567 123.278281 157.346482 123.039704 157.915397 122.516851 158.484313 121.701989 159.053229 121.564924 160.759975 120.369995 161.328889 119.423213 162.466721 118.570288 163.035636 118.421576 165.311296 117.112076 165.880212 116.629638 167.018044 114.834229 167.586958 114.306773 168.724789 114.049846 171.00045 112.144496 171.569365 110.440114 172.707197 109.905623 173.276111 109.232208 174.413943 108.855431 175.551773 108.01297 176.120688 106.71063 177.258518 105.591839 177.827434 104.652225 178.39635 104.312183 178.965264 103.452025 179.53418 103.259694 180.103096 102.895628 180.672011 101.692953 181.240926 101.552319 181.809842 100.671858 182.947672 99.8811349 183.516587 98.8699533 184.654417 98.2649904 185.223333 96.0830377 185.792249 95.9102283 186.361165 94.7845935 186.930079 94.4208219 187.498995 94.265221 188.06791 93.4375104 188.636825 93.3590015 189.774656 92.229893 190.343572 92.303954 190.912486 91.739569 191.481402 91.4135911 192.050318 90.9087263 193.188148 90.4264375 193.757064 89.4842004 194.325979 89.0644008 194.894894 88.2591866 195.463809 88.2536944 196.032725 86.241965 196.601639 85.9633071 197.739471 85.0431298 198.308385 83.8098973 200.015132 82.5383747 200.584047 82.5185078 201.152963 81.6900088 202.290793 81.0377877 202.859708 80.3904221 203.428624 79.9779023 203.99754 79.7914241 205.13537 77.6320422 205.704286 77.0692805 206.2732 77.1296666 206.842116 76.1604831 208.548861 75.0018049 209.686693 74.2215959 210.255607 74.0229083 210.824523 73.438033 211.393439 72.1908645 211.962355 71.9179196 212.531269 71.437671 213.100185 71.635627 213.6691 70.4979448 214.238015 70.5889047 215.375846 69.9047909 215.94476 68.7967578 217.082592 67.1427669 219.927168 66.1252129 220.496084 65.5613624 221.064999 65.2578758 221.633915 64.6634309 222.771745 64.2154692 223.340661 64.3343177 223.909575 63.7054579 224.478491 63.5971935 225.047407 62.7313126 225.616322 61.2399186 226.185237 61.3020023 227.323068 60.6217079 227.891982 60.6858277 228.460898 59.5582682 229.029814 59.2794906 229.598728 58.6749549 230.73656 58.0626245 231.87439 57.0434976 232.443306 55.8648122 233.581136 54.966475 234.150051 54.4424368 234.718967 54.2766801 235.287883 53.9250065 236.425713 52.1631806 236.994629 51.9668242 238.132459 51.3484339 238.701374 50.3669449 239.27029 49.9053434 239.839205 48.6661769 242.683782 47.2671928 243.252696 47.1990492 244.390528 46.1550637 244.959443 45.5441668 246.097273 45.1076478 248.372935 44.9908251 249.510765 47.4232003 250.079681 47.9142343 250.648597 48.7224051 251.786427 49.4156077 252.355342 48.7912463 252.924258 48.833749 254.062088 48.342522 254.631004 47.7770318 255.199918 47.7736953 255.768834 47.075339 256.906665 46.6813299 257.47558 45.8813057 258.044495 44.4805135 258.613411 43.941884 259.182326 43.8903194 259.751241 43.3595856 260.889071 43.0678379 261.457987 42.4364868 262.026903 41.484355 262.595819 40.9957647 263.164733 40.8708512 263.733649 40.5513222 264.302564 39.372679 264.871479 39.6588746 265.440394 39.5586959 266.00931 39.2881268 266.578226 39.1744454 267.14714 39.3119039 267.716056 39.8238657 268.284972 39.6032574 268.853886 39.9083375 269.422802 39.6809531 270.560633 38.9572231 271.129548 38.7200121 271.698463 38.6364351 272.267379 38.2756645 272.836293 37.6431762 273.974125 37.3087793 274.543039 37.2966575 275.680871 36.7613365 276.249786 36.5095207 276.818701 35.9876818 277.387616 34.5215675 277.956532 33.761599 278.525447 33.3826633 279.094362 32.1850748 279.663278 32.2987283 280.232194 31.9798391 280.801108 32.0614585 281.93894 31.2815137 282.507854 31.407838 283.645685 31.2396829 284.214601 30.6109118 284.783515 30.8496388 285.352431 30.7617769 286.490261 30.4272138 287.059177 31.2712485 289.334839 30.2214889 289.903754 30.9138773 291.041584 30.121078 291.6105 30.3100608 292.179414 30.1594156 292.74833 30.1528645 293.317246 29.9197175 293.886162 30.0312873 294.455076 29.8696162 295.023992 29.8561817 295.592907 29.4685711 296.161822 29.4398755 296.730737 29.7122083 297.868569 29.8295377 298.437483 29.2045613 299.006399 29.1242412 300.144229 29.580078 300.713145 29.4765556 301.282061 29.5257683 301.850976 29.2095675 302.419891 29.2434014 302.988806 29.1445044 303.557722 29.373509 304.126636 28.7914975 304.695552 30.0977715 305.264468 29.281902 306.971214 28.8038453 307.540129 29.1458357 308.109044 28.948631 308.67796 28.9550778 309.81579 29.3114077 310.384705 29.3688588 310.953621 29.9403615 311.522537 29.9600282 312.091451 29.5403246 312.660367 29.7465159 313.229283 29.4448909 313.798197 30.564019 314.367113 30.2943508 315.504944 30.89345 316.073858 31.6123162 316.642774 32.6546897 317.780604 33.1343532 318.34952 33.1351272 318.918436 33.6327092 319.48735 33.8162689 320.056266 37.1545385 320.625182 37.172713 321.194097 36.6953931 321.763012 35.870663 322.331927 35.9573257 323.469757 35.7348464 324.038673 35.2352138 324.607589 35.7849827 325.176505 35.8586423 325.745419 35.3809737 326.314335 35.7439682 326.88325 35.7392891 327.452165 35.515846 328.021081 36.7143271 328.589996 36.4842472 329.158912 37.1937811 329.727826 36.3891098 330.296742 37.8954718 330.865658 38.0255722 331.434572 39.2594384 332.003488 41.7741605 332.572404 43.1332839 333.141318 46.5788478 333.710234 48.6475391 334.279149 55.583212 334.848065 58.7375556 335.416979 58.2748406 335.985895 60.5090193 336.554811 59.1743985 337.123725 60.5229605 337.692641 60.1597451 338.261557 60.58452 338.830473 60.6090732 339.399387 62.440666 339.968303 63.0937777 341.675048 71.4008815 342.243964 72.3303725 342.81288 74.4178657 343.381794 75.4794322 343.95071 75.8222946 344.519626 81.4507462 345.08854 82.2978748 345.657456 83.815532 346.226371 84.0617925 346.795287 98.6733792 347.364202 101.060013 347.933117 102.412182 348.502033 106.491269 349.070947 107.544427 350.208779 113.680441 351.346609 117.616142 351.915525 120.530636 352.48444 121.463409 353.053355 122.034799 353.62227 127.208298 354.191186 130.236252 354.7601 135.289069 355.329016 145.199839 355.897932 148.299796 357.035762 152.833689 357.604678 153.028994 358.173594 152.675563 358.742508 161.947105 359.880339 166.471894 360.449255 168.660446 361.018169 167.395979 361.587085 170.937409 362.156001 172.153819 362.724915 170.093116 363.862747 174.528217 364.431661 175.556687 365.000577 175.719489 365.569492 176.401153 366.138408 176.309602 366.707323 176.926479 367.276238 177.148983 367.845154 177.151521 368.414068 178.213109 368.982984 177.953884 369.5519 178.761407 370.120816 178.320532 370.68973 179.074959 371.258646 180.340807 371.827561 180.042097 372.396476 181.066298 372.965391 181.375829 373.534307 181.932678 374.103223 181.980263 374.672137 183.284461 375.241053 183.705057 375.809969 183.936137 376.378883 185.597249 376.947799 184.801704 377.516715 185.766567 378.085629 185.572375 378.654545 188.283459 379.22346 187.419438 379.792376 187.357489 380.36129 187.652228 380.930206 186.838928 381.499122 187.015204 382.068036 187.502469 383.205868 187.895779 383.774783 188.786795 384.343698 188.710406 384.912613 188.918466 385.481529 188.162783 386.050444 188.634121 386.619359 188.345259 387.188275 188.451455 387.757191 187.63344 388.326105 188.291842 388.895021 187.538488 389.463937 187.331292 390.032851 187.632927 390.601767 187.73097 391.170682 187.685953 391.739598 188.027603 392.308512 188.98328 392.877428 189.207244 394.015258 188.490576 394.584174 187.506644 395.15309 187.817205 395.722004 187.722199 396.29092 187.423951 396.859836 186.778329 397.428751 186.500231 397.997666 186.376794 398.566581 186.076143 399.135497 185.346859 399.704411 185.297927 400.273327 185.469198 400.842243 184.973754 401.980073 184.369018 402.548989 183.661229 403.117904 183.809125 403.686819 184.114579 404.255734 184.106725 404.82465 184.306325 405.393566 183.832851 405.96248 183.612609 407.100312 184.950532 407.669226 184.793533 408.807058 186.07756 409.375972 187.243331 411.082719 187.758529 411.651633 189.012741 412.220549 188.826514 412.789465 189.365654 413.927295 190.943316 414.496211 191.772731 415.065126 191.888956 415.634041 192.142183 416.202957 191.753309 416.771872 192.366141 417.340787 192.495551 417.909702 193.097823 418.478618 192.988874 419.047534 196.677938 419.616448 197.6114 420.185364 199.287597 420.75428 199.620314 421.323194 199.774378 423.02994 199.559706 423.598855 199.82937 424.167771 199.374107 424.736687 199.329649 425.874517 198.568613 428.150179 198.725286 429.856924 200.51142 430.42584 200.266498 430.994754 200.157795 431.56367 200.21013 432.701502 200.054697 433.270416 200.123554 433.839332 200.642718 434.408247 200.08872 434.977162 200.284195 435.546078 201.123096 436.114993 201.080293 436.683908 201.187656 437.252823 201.158095 437.821739 201.697095 438.390655 201.240835 438.959569 201.155209 440.666315 200.473267 441.804146 200.529659 442.373062 199.866688 442.941976 199.762638 443.510892 200.117876 444.648722 201.143719 445.217638 202.29258 445.786554 202.390003 446.35547 201.771026 447.4933 201.39941 448.062215 200.955023 448.63113 200.845574 449.200045 200.54448 449.768961 201.076531 450.337877 200.796205 450.906791 200.809033 451.475707 200.96593 452.044623 200.691258 452.613537 201.506393 453.182453 201.35491 453.751368 201.06073 454.320283 201.32276 454.889199 200.937016 454.889199 200.937016"></polyline>
        </g>
        <path d="M223.834583,271.5 L517.308687,271.5" id="Line" stroke="#D3D3D3" fill="#D3D3D3" stroke-linecap="square"></path>
        <path id="Line-decoration-1" d="M517.308687,271.5 L506.508687,268.5 L506.508687,274.5 L517.308687,271.5 Z" stroke="#D3D3D3" fill="#D3D3D3" stroke-linecap="square"></path>
        <text id="Richtung-Heilbronn" font-family="ArialMT, Arial" font-size="14" font-weight="normal" fill="#D3D3D3">
            <tspan x="81.6150507" y="274.431084">Richtung Heilbronn</tspan>
        </text>
        <path d="M243.818912,61.0558815 L166.890206,41.0276623" id="Line-2" stroke="#979797" stroke-linecap="square"></path>
        <text id="Schweinsberg" font-family="ArialMT, Arial" font-size="18" font-weight="normal" fill="#333333">
            <tspan x="109.849493" y="33">Schweinsberg</tspan>
        </text>
        <g id="rennrad" transform="translate(528.000000, 178.837932)" fill="#2C7BB6" fill-rule="nonzero">
            <g transform="translate(15.000000, 13.535968) scale(-1, 1) translate(-15.000000, -13.535968) ">
                <path d="M14.2340426,15.0320486 L15.4148936,15.7444679 L14.7446809,18.6297664 C14.6170213,19.1640809 14.7765957,19.7340164 15.1276596,20.0902261 L16.2765957,20.0902261 L17.7446809,17.6680002 L18.287234,15.3526373 C18.3829787,14.9251857 18.3191489,14.4621131 18.0638298,14.1059034 L14.0106383,14.1059034 C14.0744681,14.3908712 14.1702128,14.7114599 14.2340426,15.0320486 Z" id="Shape"></path>
                <path d="M13.8191489,11.3630889 C13.6276596,11.5411937 13.4361702,11.7549195 13.2446809,11.9686453 C13.3404255,12.1823711 13.4361702,12.4317179 13.5319149,12.6454437 C13.5319149,12.6454437 13.5319149,12.6454437 13.5319149,12.6454437 L15.9574468,12.6454437 L13.8191489,11.3630889 Z" id="Shape"></path>
                <ellipse id="Oval" transform="translate(20.382772, 4.165573) rotate(-47.780267) translate(-20.382772, -4.165573) " cx="20.3827723" cy="4.16557301" rx="2.42561967" ry="2.70729153"></ellipse>
                <path d="M29.8723404,20.8026454 C29.8723404,17.3830325 27.3829787,14.604597 24.3191489,14.604597 C23.6808511,14.604597 23.106383,14.7114599 22.5319149,14.9251857 L23.0744681,16.2075405 C23.4574468,16.0650567 23.8723404,15.9938147 24.3191489,15.9938147 C26.6808511,15.9938147 28.6276596,18.1310728 28.6276596,20.8026454 C28.6276596,23.474218 26.712766,25.6114761 24.3191489,25.6114761 C21.9255319,25.6114761 20.0106383,23.474218 20.0106383,20.8026454 C20.0106383,19.1640809 20.7446809,17.7036212 21.893617,16.813097 L21.3510638,15.5307421 C19.787234,16.6349921 18.7340426,18.5585244 18.7340426,20.7670245 C18.7340426,24.1866374 21.2234043,26.9650729 24.287234,26.9650729 C27.3829787,27.0006939 29.8723404,24.2222584 29.8723404,20.8026454 Z" id="Shape"></path>
                <path d="M11.1382979,21.6575487 C11.1382979,21.6219277 11.1702128,21.5506858 11.1702128,21.5150648 L11.0744681,21.5150648 L11.106383,21.265718 L11.2340426,21.265718 C11.2978723,20.9451293 11.3297872,20.6245406 11.3617021,20.3039519 L11.1702128,20.3039519 L11.2021277,20.0546051 C11.0106383,18.2379357 10.1489362,16.6706131 8.87234043,15.708847 L9.4787234,14.6402179 L9.92553191,13.8565566 L10.6276596,13.8565566 C10.4361702,13.3578631 10.2765957,13.0728953 10.1808511,12.9304115 C10.0212766,12.6810647 9.82978723,12.1823711 9.67021277,11.5768147 C8.80851064,11.6836776 8.17021277,12.0042663 8.17021277,12.3960969 C8.17021277,12.6810647 8.5212766,12.9304115 9.06382979,13.1085163 C9.12765957,13.1441373 9.22340426,13.1441373 9.28723404,13.1797582 L8.64893617,14.2840082 L8.10638298,15.2457744 C7.37234043,14.8539437 6.54255319,14.604597 5.64893617,14.604597 C2.58510638,14.604597 0.0957446809,17.3830325 0.0957446809,20.8026454 C0.0957446809,24.2222584 2.58510638,27.0006939 5.64893617,27.0006939 C8.29787234,27.0006939 10.5319149,24.9346777 11.0744681,22.1562422 C11.106383,22.0137583 11.106383,21.8356535 11.1382979,21.6575487 Z M9.95744681,20.3395728 L6.22340426,20.3395728 L8.17021277,16.9199599 C9.15957447,17.7036212 9.82978723,18.9147341 9.95744681,20.3395728 Z M5.68085106,25.6114761 C3.31914894,25.6114761 1.37234043,23.474218 1.37234043,20.8026454 C1.37234043,18.1310728 3.31914894,16.0294357 5.68085106,16.0294357 C6.31914894,16.0294357 6.89361702,16.1719196 7.43617021,16.4568873 L5.07446809,20.5889196 C4.9787234,20.7314035 4.9787234,20.9095083 5.07446809,21.0876132 C5.13829787,21.230097 5.29787234,21.33696 5.45744681,21.33696 L9.9893617,21.33696 C9.76595745,23.7235648 7.91489362,25.6114761 5.68085106,25.6114761 Z" id="Shape"></path>
                <path d="M24.3191489,21.301339 C24.3829787,21.301339 24.4468085,21.301339 24.5106383,21.265718 C24.7340426,21.1588551 24.8297872,20.8738874 24.7021277,20.6245406 L21.7978723,13.7853147 C22.0531915,13.7140728 22.3723404,13.5715889 22.6914894,13.3578631 C23.4255319,12.8591695 24.3191489,11.8974034 25.0212766,10.1519759 C25.1170213,9.90262916 25.0212766,9.61766141 24.7978723,9.51079851 C24.5744681,9.4039356 24.3191489,9.51079851 24.2234043,9.76014529 C24.0319149,10.1875969 23.8723404,10.5438066 23.6808511,10.8643953 C23.7446809,11.0425001 23.8085106,11.256226 23.7765957,11.4699518 C23.712766,12.0755082 23.2659574,12.5742018 22.7234043,12.5742018 C22.6914894,12.5742018 22.6595745,12.5742018 22.6276596,12.5742018 C22.5,12.5742018 22.4042553,12.5385808 22.2765957,12.5385808 C22.2765957,12.5385808 22.2446809,12.5385808 22.2446809,12.5742018 C21.6702128,12.9660324 21.2234043,12.9660324 21.1914894,12.9660324 C21.1914894,12.9660324 21.1914894,12.9660324 21.1914894,12.9660324 C21.1914894,12.9660324 21.1914894,12.9660324 21.1914894,12.9660324 C21.1914894,12.9660324 21.1914894,12.9660324 21.1914894,12.9660324 L13.6276596,12.9660324 C13.7234043,13.2510002 13.8191489,13.5715889 13.9468085,13.9277986 L20.3297872,13.9277986 L16.3404255,20.3395728 L14.4893617,20.3395728 C14.4574468,20.6601616 14.4255319,20.9807503 14.3617021,21.301339 L16.5957447,21.301339 C16.7234043,21.301339 16.8829787,21.230097 16.9468085,21.0876132 L21.0957447,14.3552502 L23.9361702,21.0163712 C24,21.1944761 24.1595745,21.301339 24.3191489,21.301339 Z" id="Shape"></path>
                <path d="M14.3617021,18.5585244 C14.3617021,16.1006776 13.8510638,14.1415244 13.3404255,12.7523066 C13.212766,12.4317179 13.1170213,12.1823711 12.9893617,11.9330243 C14.0106383,10.7219114 15.3829787,9.72452432 16.4680851,8.94086302 C15.7659574,8.05033881 15.3510638,7.30229848 15.287234,7.12419364 C15.1595745,6.83922589 15.1276596,6.51863718 15.1914894,6.19804847 C15.287234,5.87745975 15.4468085,5.62811298 15.7021277,5.4856291 C15.8617021,5.3787662 16.0212766,5.34314523 16.212766,5.34314523 C16.5957447,5.34314523 16.9787234,5.59249201 17.1702128,5.98432266 L17.1702128,6.01994363 C17.1702128,6.05556459 17.2021277,6.09118556 17.2340426,6.12680653 C17.2978723,6.23366943 17.3617021,6.37615331 17.4893617,6.55425815 C17.6170213,6.73236299 17.7765957,7.01733074 18,7.30229848 C18.1914894,6.80360493 18.2234043,6.30491137 18,5.84183878 C17.5212766,4.91569361 16.2446809,4.27451618 14.7446809,5.05817748 C12.6702128,6.1624275 11.5531915,7.15981461 10.0531915,9.22583076 C9.35106383,10.4013227 10.0212766,12.289234 10.3723404,12.8235486 C10.8510638,13.6072099 11.6808511,15.637605 11.6808511,18.5585244 C11.6808511,19.5202906 11.5851064,20.5889196 11.3617021,21.7287906 C11.2021277,22.5480729 11.6489362,23.3317342 12.3829787,23.509839 C12.4787234,23.54546 12.5744681,23.54546 12.6702128,23.54546 C13.2765957,23.54546 13.8510638,23.0823874 13.9787234,22.369968 C14.2659574,21.0163712 14.3617021,19.7340164 14.3617021,18.5585244 Z" id="Shape"></path>
                <path d="M17.3297872,6.66112105 C17.2021277,6.48301621 17.106383,6.30491137 17.0744681,6.23366943 C17.0425532,6.19804847 17.0106383,6.12680653 17.0106383,6.12680653 C17.0106383,6.12680653 17.0106383,6.09118556 17.0106383,6.09118556 C16.787234,5.62811298 16.2765957,5.45000813 15.8617021,5.69935491 C15.4468085,5.94870169 15.287234,6.51863718 15.5106383,6.98170977 C15.5425532,7.0529517 16.1170213,8.19282269 17.2659574,9.43955657 C18.4148936,10.6862905 20.2340426,12.0042663 22.6595745,12.2536131 C22.6914894,12.2536131 22.7234043,12.2536131 22.7234043,12.2536131 C23.1702128,12.2536131 23.5531915,11.8617824 23.5851064,11.3630889 C23.6170213,10.8287743 23.2659574,10.3657017 22.8191489,10.3300808 C20.8723404,10.1519759 19.4361702,9.08334689 18.4468085,8.05033881 C17.9361702,7.55164526 17.5851064,7.0529517 17.3297872,6.66112105 Z" id="Shape"></path>
            </g>
        </g>
        <g id="bike" transform="translate(528.000000, 91.780286)" fill="#ABD9E9" fill-rule="nonzero">
            <g transform="translate(15.000000, 17.040817) scale(-1, 1) translate(-15.000000, -17.040817) ">
                <g id="Group">
                    <path d="M29.7142857,28.0579029 C29.7142857,24.768629 27.2857143,22.0738022 24.3214286,22.0738022 C23.8214286,22.0738022 23.3571429,22.1530618 22.9285714,22.2719512 L20.7857143,15.2574755 L21.3928571,14.940437 L20.6785714,14.5045091 L20.25,14.742288 C20.1071429,14.8215476 20.0357143,15.0196966 20.0714286,15.1782158 L20.5714286,16.8030379 L17.6785714,17.8334129 C17.75,18.0711917 17.7857143,18.3486004 17.75,18.5863792 L20.7857143,17.5560042 L21.1071429,18.5863792 L16.0714286,24.4912204 L15.5714286,26.1556722 L21.3214286,19.3789753 L22.2857143,22.5493598 C20.3214286,23.4608454 18.9285714,25.6008549 18.9285714,28.0975327 C18.9285714,31.3868067 21.3571429,34.0816335 24.3214286,34.0816335 C27.3214286,34.0420037 29.7142857,31.3868067 29.7142857,28.0579029 Z M19.8571429,28.0579029 C19.8571429,25.997153 20.9642857,24.2534415 22.5714286,23.5004752 L24,28.1767923 C24.0357143,28.3353116 24.1785714,28.4145712 24.3214286,28.4145712 C24.3571429,28.4145712 24.3928571,28.4145712 24.4285714,28.3749414 C24.6071429,28.2956818 24.7142857,28.0975327 24.6428571,27.8993837 L23.2142857,23.2230665 C23.5714286,23.1041771 23.9285714,23.0645473 24.3214286,23.0645473 C26.7857143,23.0645473 28.7857143,25.2838165 28.7857143,28.0182731 C28.7857143,30.7527298 26.7857143,32.9719989 24.3214286,32.9719989 C21.8571429,33.0116287 19.8571429,30.7923596 19.8571429,28.0579029 Z" id="Shape"></path>
                    <path d="M11.0357143,27.7012347 C10.9285714,25.9575232 10.1428571,24.3723309 8.96428571,23.341956 L10.3214286,21.1226868 L10.7857143,20.9641676 L12.1785714,25.2045569 L12.5,24.0552925 L11.4285714,20.7660186 L13.7142857,19.9734224 L13.8571429,19.4978647 L13.3928571,19.2997157 L11.2142857,20.052682 L10.9285714,19.1808263 L11.6071429,19.1808263 C11.7857143,19.1808263 11.9285714,19.0223071 11.9285714,18.824158 L11.9285714,18.6656388 L9.89285714,17.7541533 L8.75,17.7541533 C8.57142857,17.7541533 8.42857143,17.9126725 8.42857143,18.1108215 L8.42857143,18.7845282 C8.42857143,18.9826773 8.57142857,19.1411965 8.75,19.1411965 L10.2142857,19.1411965 L10.5714286,20.2508311 L10.0357143,20.4489801 C9.96428571,20.4886099 9.89285714,20.5282397 9.85714286,20.6074993 L8.42857143,22.9456579 C7.60714286,22.3908406 6.67857143,22.113432 5.67857143,22.113432 C2.71428571,22.113432 0.285714286,24.8082588 0.285714286,28.0975327 C0.285714286,31.3868067 2.71428571,34.0816335 5.67857143,34.0816335 C8.53571429,34.0816335 10.8928571,31.5849557 11.0714286,28.454201 L12.1428571,28.454201 C11.9642857,28.256052 11.8571429,27.9786433 11.7857143,27.7012347 L11.0357143,27.7012347 Z M5.67857143,33.0116287 C3.21428571,33.0116287 1.21428571,30.7923596 1.21428571,28.0579029 C1.21428571,25.3234463 3.21428571,23.1041771 5.67857143,23.1041771 C6.5,23.1041771 7.25,23.341956 7.92857143,23.7778838 L5.42857143,27.8597539 C5.35714286,27.9786433 5.35714286,28.1371625 5.39285714,28.256052 C5.46428571,28.3749414 5.57142857,28.454201 5.67857143,28.454201 L10.1071429,28.454201 C9.92857143,30.9905086 8.03571429,33.0116287 5.67857143,33.0116287 Z M6.32142857,27.7012347 L8.46428571,24.2138117 C9.39285714,25.0460376 10.0357143,26.2745616 10.1071429,27.7012347 L6.32142857,27.7012347 Z" id="Shape"></path>
                    <path d="M17.4285714,18.9034177 C17.6785714,18.0711917 17.2857143,17.199336 16.5714286,16.8822975 L11.8928571,14.7819178 C12.7142857,13.2363553 13.8571429,11.8493121 14.6785714,10.7793073 L13.1071429,9.78856218 C12.8214286,9.63004295 12.6071429,9.3130045 12.5357143,8.99596605 C12.4642857,8.63929779 12.5,8.28262954 12.6428571,7.96559109 C12.8571429,7.52966322 13.25,7.29188438 13.6785714,7.29188438 C13.8928571,7.29188438 14.1071429,7.37114399 14.2857143,7.4504036 L15.5714286,8.28262954 C15.5357143,7.92596128 15.3928571,7.56929302 15.1785714,7.33151418 C14.4285714,6.53891806 12.8928571,6.26150941 11.5357143,7.60892283 C9.67857143,9.47152373 8.78571429,10.858567 7.75,13.5533938 C7.35714286,14.9008072 7.67857143,15.7726629 8.21428571,16.36711 C8.35714286,16.6445187 8.60714286,16.8822975 8.89285714,17.0011869 L9.42857143,17.2389658 C9.53571429,17.2785956 9.64285714,17.3578552 9.71428571,17.3578552 L14.1071429,19.2997157 L11.9642857,26.6708597 C11.7142857,27.5427154 12.1428571,28.454201 12.8928571,28.7316096 C13.0357143,28.7712394 13.1785714,28.8108693 13.3571429,28.8108693 C13.9642857,28.8108693 14.5357143,28.3749414 14.75,27.7012347 L17.4285714,18.9034177 Z" id="Shape"></path>
                    <path d="M14.2142857,7.72781225 C13.75,7.4504036 13.1785714,7.60892283 12.9285714,8.12411031 C12.6785714,8.63929779 12.8214286,9.2733747 13.2857143,9.55078334 L21.6071429,14.742288 C21.75,14.8215476 21.8928571,14.8611774 22.0714286,14.8611774 C22.3928571,14.8611774 22.7142857,14.6630284 22.8928571,14.3459899 C23.1428571,13.8308024 23,13.1967255 22.5357143,12.9193169 L14.2142857,7.72781225 Z" id="Shape"></path>
                    <path d="M16.25,6.89558631 C16.8571429,7.21262476 17.5,7.25225457 18.0714286,7.09373535 C17.1428571,6.02373057 17,5.07261522 17,4.51779793 C16.1428571,5.11224503 15.4642857,5.42928348 14.9285714,5.42928348 C15.1785714,6.02373057 15.6428571,6.57854786 16.25,6.89558631 Z" id="Shape"></path>
                    <path d="M18.4642857,6.93521612 C19.0714286,6.65780747 19.5714286,6.14261999 19.8571429,5.46891328 C20.25,4.55742774 20.1785714,3.52705277 19.7857143,2.73445664 C19.3214286,2.89297587 18.6785714,3.17038451 18.4285714,3.40816335 C18.0714286,3.7252018 17.7142857,4.00261045 17.3928571,4.28001909 C17.3571429,4.51779793 17.2142857,5.66706231 18.4642857,6.93521612 Z" id="Shape"></path>
                    <path d="M17.6071429,0.118889419 C15.9642857,-0.277408645 14.3214286,0.871855741 13.9642857,2.69482683 C13.7857143,3.56668258 13.5357143,7.25225457 18.1785714,3.0911249 C18.5714286,2.73445664 19.6428571,2.33815858 19.8214286,2.29852877 C20,2.29852877 20.1428571,2.29852877 20.2142857,2.21926916 C20.25,2.21926916 20.25,2.17963935 20.25,2.14000955 C20.25,2.10037974 20.2142857,2.02112013 20.1071429,1.94186051 C19.9642857,1.78334129 19.7142857,1.62482206 19.4642857,1.46630284 C19.0357143,0.792596128 18.3928571,0.277408645 17.6071429,0.118889419 Z M18.1785714,1.90223071 C17.9642857,1.74371148 17.8928571,1.46630284 18,1.34741342 C18.1071429,1.18889419 18.3571429,1.228524 18.5357143,1.38704322 C18.75,1.54556245 18.8214286,1.82297109 18.7142857,1.94186051 C18.6428571,2.06074993 18.3928571,2.06074993 18.1785714,1.90223071 Z" id="Shape"></path>
                </g>
                <polygon id="Shape" points="18.3214286 18.7448984 17.5 19.6960138 16.3928571 23.4212156 16.4285714 23.4608454 19.4642857 19.9337926"></polygon>
            </g>
        </g>
        <g id="auto" transform="translate(528.000000, 138.657480)" fill="#D7191C" fill-rule="nonzero">
            <path d="M25.3846154,27.7977971 L27.6923077,27.7977971 C28.3333333,27.7977971 28.8461538,27.2362254 28.8461538,26.5342608 L28.8461538,23.8667955 L30,23.8667955 L30,20.2165797 L0,20.2165797 L0,23.8667955 L1.15384615,23.8667955 L1.15384615,26.5342608 C1.15384615,27.2362254 1.66666667,27.7977971 2.30769231,27.7977971 L4.61538462,27.7977971 C5.25641026,27.7977971 5.76923077,27.2362254 5.76923077,26.5342608 L5.76923077,23.8667955 L24.2307692,23.8667955 L24.2307692,26.5342608 C24.2307692,27.2362254 24.7435897,27.7977971 25.3846154,27.7977971 Z" id="Shape"></path>
            <path d="M29.9679829,12.9605371 C29.9679829,12.9605371 29.5197439,12.7805296 28.751334,12.5645207 L25.0693703,1.44005967 C25.0693703,1.44005967 17.3532551,0 14.9839915,0 C12.6147279,0 4.89861259,1.44005967 4.89861259,1.44005967 L1.21664888,12.5645207 C0.416221985,12.8165311 0,12.9605371 0,12.9605371 L0,19.5848116 L30,19.5848116 L30,12.9605371 L29.9679829,12.9605371 Z M4.41835646,18.1447519 C3.32977588,18.1447519 2.46531483,17.1727116 2.46531483,15.9486609 C2.46531483,14.7246102 3.32977588,13.7525699 4.41835646,13.7525699 C5.50693703,13.7525699 6.37139808,14.7246102 6.37139808,15.9486609 C6.339381,17.1727116 5.47491996,18.1447519 4.41835646,18.1447519 Z M3.9701174,11.6644834 L6.62753469,3.74415515 C8.38847385,3.42014173 13.2230523,2.59210741 15.0160085,2.59210741 C16.8089648,2.59210741 21.6435432,3.42014173 23.4044824,3.74415515 L26.0298826,11.6644834 C26.0298826,11.6644834 19.0501601,10.3684297 15.0160085,10.3684297 C10.9498399,10.3684297 3.9701174,11.6644834 3.9701174,11.6644834 Z M25.5496265,18.1447519 C24.4610459,18.1447519 23.5965848,17.1727116 23.5965848,15.9486609 C23.5965848,14.7246102 24.4610459,13.7525699 25.5496265,13.7525699 C26.638207,13.7525699 27.5026681,14.7246102 27.5026681,15.9486609 C27.5026681,17.1727116 26.638207,18.1447519 25.5496265,18.1447519 Z" id="Shape"></path>
            <ellipse id="Oval" cx="20.3773585" cy="6.94944927" rx="2.83018868" ry="3.15884058"></ellipse>
        </g>
    </g>
</svg>