<?xml version="1.0" encoding="utf-8"?>
<!-- Generator: Adobe Illustrator 21.1.0, SVG Export Plug-In . SVG Version: 6.00 Build 0)  -->
<svg version="1.1" id="Ebene_1" xmlns="http://www.w3.org/2000/svg" xmlns:xlink="http://www.w3.org/1999/xlink" x="0px" y="0px"
	 viewBox="0 0 100 100" style="enable-background:new 0 0 100 100;" xml:space="preserve">
<style type="text/css">
	.st0{fill:#D7191C;}
	.st1{fill:#2C7BB6;}
</style>
<g>
	<path class="st0" d="M82.4,89h7.2c2,0,3.6-1.6,3.6-3.6v-7.6h3.6V67.4H3.2v10.4h3.6v7.6c0,2,1.6,3.6,3.6,3.6h7.2
		c2,0,3.6-1.6,3.6-3.6v-7.6h57.6v7.6C78.8,87.4,80.4,89,82.4,89z"/>
	<path class="st0" d="M96.8,47c0,0-1.4-0.5-3.8-1.1L81.5,15c0,0-24.1-4-31.5-4c-7.4,0-31.5,4-31.5,4L7,45.9C4.5,46.6,3.2,47,3.2,47
		v18.4h93.7V47z M17,61.4c-3.4,0-6.1-2.7-6.1-6.1c0-3.4,2.7-6.1,6.1-6.1c3.4,0,6.1,2.7,6.1,6.1C23,58.7,20.3,61.4,17,61.4z
		 M15.6,43.4l8.3-22c5.5-0.9,20.6-3.2,26.2-3.2c5.6,0,20.7,2.3,26.2,3.2l8.2,22c0,0-21.8-3.6-34.4-3.6
		C37.4,39.8,15.6,43.4,15.6,43.4z M83,61.4c-3.4,0-6.1-2.7-6.1-6.1c0-3.4,2.7-6.1,6.1-6.1c3.4,0,6.1,2.7,6.1,6.1
		C89.1,58.7,86.4,61.4,83,61.4z"/>
	<circle class="st0" cx="66.4" cy="31" r="8.5"/>
</g>
</svg>
