<?xml version="1.0" encoding="utf-8"?>
<!-- Generator: Adobe Illustrator 21.1.0, SVG Export Plug-In . SVG Version: 6.00 Build 0)  -->
<svg version="1.1" id="Ebene_1" xmlns="http://www.w3.org/2000/svg" xmlns:xlink="http://www.w3.org/1999/xlink" x="0px" y="0px"
	 viewBox="0 0 100 100" style="enable-background:new 0 0 100 100;" xml:space="preserve">
<style type="text/css">
	.st0{fill:#D7191C;}
	.st1{fill:#2C7BB6;}
	.st2{fill:#FDAE61;}
</style>
<g>
	<path class="st2" d="M25.5,85.6L21.2,95h6.9l4.2-9.1h-3C29.1,85.9,27.6,85.8,25.5,85.6z"/>
	<path class="st2" d="M70.7,85.9h-3l4.2,9.1h6.9l-4.3-9.4C72.4,85.8,70.9,85.9,70.7,85.9L70.7,85.9z"/>
	<path class="st2" d="M70.7,17.6c-1-3.8-6.1-7-13.1-8.4V5H42.3v4.2c-6.9,1.4-12,4.5-13.1,8.4c-2.7,1.5-5.1,3.3-7.3,5.6
		c-7.4,7.6-8,41.6-7.7,52.7c0.3,9.2,15.1,9.1,15.1,9.1H50h20.7c0,0,14.8,0,15.1-9.1c0.3-11.1-0.3-45.1-7.7-52.7
		C75.9,20.9,73.5,19,70.7,17.6z M66.1,70.9c0-2.3,1.9-4.1,4.1-4.1h5.8c2.3,0,4.1,1.9,4.1,4.1c0,2.3-1.9,4.1-4.1,4.1h-5.8
		C68,75.1,66.1,73.2,66.1,70.9z M29.7,75.1h-5.8c-2.3,0-4.1-1.9-4.1-4.1c0-2.3,1.9-4.1,4.1-4.1h5.8c2.3,0,4.1,1.9,4.1,4.1
		C33.9,73.2,32,75.1,29.7,75.1z M24.9,26c5.5-5.6,12.8-8.4,22.9-8.8v35.3H19c0.1-1.3,0.2-2.6,0.3-3.9C21,31.2,24,26.9,24.9,26z
		 M81,52.4H52.2V17.2c10.1,0.4,17.4,3.2,22.9,8.8c0.9,0.9,3.9,5.2,5.6,22.6C80.8,49.8,80.9,51.1,81,52.4z"/>
	<path class="st2" d="M39.3,38.8c0.1,0.1,0.2,0.1,0.3,0.1c0.1,0,0.2,0,0.3-0.1c0.2-0.2,0.2-0.5,0-0.7l-3.9-3.9
		c-0.2-0.2-0.5-0.2-0.7,0c-0.2,0.2-0.2,0.5,0,0.7L39.3,38.8z"/>
	<path class="st2" d="M33.8,36.5c-0.2-0.2-0.5-0.2-0.7,0c-0.2,0.2-0.2,0.5,0,0.7l3.9,3.9c0.1,0.1,0.2,0.1,0.3,0.1
		c0.1,0,0.2,0,0.3-0.1c0.2-0.2,0.2-0.5,0-0.7L33.8,36.5z"/>
	<path class="st2" d="M40.8,42.3c0.1,0.1,0.2,0.1,0.3,0.1c0.1,0,0.2,0,0.3-0.1c0.2-0.2,0.2-0.5,0-0.7l-9.3-8.9
		c-0.2-0.2-0.5-0.2-0.7,0c-0.2,0.2-0.2,0.5,0,0.7L40.8,42.3z"/>
	<path class="st2" d="M66.3,38.8c0.1,0.1,0.2,0.1,0.3,0.1c0.1,0,0.2,0,0.3-0.1c0.2-0.2,0.2-0.5,0-0.7l-3.9-3.9
		c-0.2-0.2-0.5-0.2-0.7,0c-0.2,0.2-0.2,0.5,0,0.7L66.3,38.8z"/>
	<path class="st2" d="M60.8,36.5c-0.2-0.2-0.5-0.2-0.7,0c-0.2,0.2-0.2,0.5,0,0.7l3.9,3.9c0.1,0.1,0.2,0.1,0.3,0.1
		c0.1,0,0.2,0,0.3-0.1c0.2-0.2,0.2-0.5,0-0.7L60.8,36.5z"/>
	<path class="st2" d="M59.2,32.8c-0.2-0.2-0.5-0.2-0.7,0c-0.2,0.2-0.2,0.5,0,0.7l9.3,8.9c0.1,0.1,0.2,0.1,0.3,0.1
		c0.1,0,0.2,0,0.3-0.1c0.2-0.2,0.2-0.5,0-0.7L59.2,32.8z"/>
</g>
</svg>
