<?xml version="1.0" encoding="UTF-8"?>
<svg width="84px" height="86px" viewBox="0 0 84 86" version="1.1" xmlns="http://www.w3.org/2000/svg" xmlns:xlink="http://www.w3.org/1999/xlink">
    <!-- Generator: Sketch 50.2 (55047) - http://www.bohemiancoding.com/sketch -->
    <title>bike</title>
    <desc>Created with Sketch.</desc>
    <defs></defs>
    <g id="Page-1" stroke="none" stroke-width="1" fill="none" fill-rule="evenodd">
        <g id="bike" transform="translate(42.000000, 43.000000) scale(-1, 1) translate(-42.000000, -43.000000) " fill="#ABD9E9" fill-rule="nonzero">
            <g id="Group">
                <path d="M83.2,70.8 C83.2,62.5 76.4,55.7 68.1,55.7 C66.7,55.7 65.4,55.9 64.2,56.2 L58.2,38.5 L59.9,37.7 L57.9,36.6 L56.7,37.2 C56.3,37.4 56.1,37.9 56.2,38.3 L57.6,42.4 L49.5,45 C49.7,45.6 49.8,46.3 49.7,46.9 L58.2,44.3 L59.1,46.9 L45,61.8 L43.6,66 L59.7,48.9 L62.4,56.9 C56.9,59.2 53,64.6 53,70.9 C53,79.2 59.8,86 68.1,86 C76.5,85.9 83.2,79.2 83.2,70.8 Z M55.6,70.8 C55.6,65.6 58.7,61.2 63.2,59.3 L67.2,71.1 C67.3,71.5 67.7,71.7 68.1,71.7 C68.2,71.7 68.3,71.7 68.4,71.6 C68.9,71.4 69.2,70.9 69,70.4 L65,58.6 C66,58.3 67,58.2 68.1,58.2 C75,58.2 80.6,63.8 80.6,70.7 C80.6,77.6 75,83.2 68.1,83.2 C61.2,83.3 55.6,77.7 55.6,70.8 Z" id="Shape"></path>
                <path d="M30.9,69.9 C30.6,65.5 28.4,61.5 25.1,58.9 L28.9,53.3 L30.2,52.9 L34.1,63.6 L35,60.7 L32,52.4 L38.4,50.4 L38.8,49.2 L37.5,48.7 L31.4,50.6 L30.6,48.4 L32.5,48.4 C33,48.4 33.4,48 33.4,47.5 L33.4,47.1 L27.7,44.8 L24.5,44.8 C24,44.8 23.6,45.2 23.6,45.7 L23.6,47.4 C23.6,47.9 24,48.3 24.5,48.3 L28.6,48.3 L29.6,51.1 L28.1,51.6 C27.9,51.7 27.7,51.8 27.6,52 L23.6,57.9 C21.3,56.5 18.7,55.8 15.9,55.8 C7.6,55.8 0.8,62.6 0.8,70.9 C0.8,79.2 7.6,86 15.9,86 C23.9,86 30.5,79.7 31,71.8 L34,71.8 C33.5,71.3 33.2,70.6 33,69.9 L30.9,69.9 Z M15.9,83.3 C9,83.3 3.4,77.7 3.4,70.8 C3.4,63.9 9,58.3 15.9,58.3 C18.2,58.3 20.3,58.9 22.2,60 L15.2,70.3 C15,70.6 15,71 15.1,71.3 C15.3,71.6 15.6,71.8 15.9,71.8 L28.3,71.8 C27.8,78.2 22.5,83.3 15.9,83.3 Z M17.7,69.9 L23.7,61.1 C26.3,63.2 28.1,66.3 28.3,69.9 L17.7,69.9 Z" id="Shape"></path>
                <path d="M48.8,47.7 C49.5,45.6 48.4,43.4 46.4,42.6 L33.3,37.3 C35.6,33.4 38.8,29.9 41.1,27.2 L36.7,24.7 C35.9,24.3 35.3,23.5 35.1,22.7 C34.9,21.8 35,20.9 35.4,20.1 C36,19 37.1,18.4 38.3,18.4 C38.9,18.4 39.5,18.6 40,18.8 L43.6,20.9 C43.5,20 43.1,19.1 42.5,18.5 C40.4,16.5 36.1,15.8 32.3,19.2 C27.1,23.9 24.6,27.4 21.7,34.2 C20.6,37.6 21.5,39.8 23,41.3 C23.4,42 24.1,42.6 24.9,42.9 L26.4,43.5 C26.7,43.6 27,43.8 27.2,43.8 L39.5,48.7 L33.5,67.3 C32.8,69.5 34,71.8 36.1,72.5 C36.5,72.6 36.9,72.7 37.4,72.7 C39.1,72.7 40.7,71.6 41.3,69.9 L48.8,47.7 Z" id="Shape"></path>
                <path d="M39.8,19.5 C38.5,18.8 36.9,19.2 36.2,20.5 C35.5,21.8 35.9,23.4 37.2,24.1 L60.5,37.2 C60.9,37.4 61.3,37.5 61.8,37.5 C62.7,37.5 63.6,37 64.1,36.2 C64.8,34.9 64.4,33.3 63.1,32.6 L39.8,19.5 Z" id="Shape"></path>
                <path d="M45.5,17.4 C47.2,18.2 49,18.3 50.6,17.9 C48,15.2 47.6,12.8 47.6,11.4 C45.2,12.9 43.3,13.7 41.8,13.7 C42.5,15.2 43.8,16.6 45.5,17.4 Z" id="Shape"></path>
                <path d="M51.7,17.5 C53.4,16.8 54.8,15.5 55.6,13.8 C56.7,11.5 56.5,8.9 55.4,6.9 C54.1,7.3 52.3,8 51.6,8.6 C50.6,9.4 49.6,10.1 48.7,10.8 C48.6,11.4 48.2,14.3 51.7,17.5 Z" id="Shape"></path>
                <path d="M49.3,0.3 C44.7,-0.7 40.1,2.2 39.1,6.8 C38.6,9 37.9,18.3 50.9,7.8 C52,6.9 55,5.9 55.5,5.8 C56,5.8 56.4,5.8 56.6,5.6 C56.7,5.6 56.7,5.5 56.7,5.4 C56.7,5.3 56.6,5.1 56.3,4.9 C55.9,4.5 55.2,4.1 54.5,3.7 C53.3,2 51.5,0.7 49.3,0.3 Z M50.9,4.8 C50.3,4.4 50.1,3.7 50.4,3.4 C50.7,3 51.4,3.1 51.9,3.5 C52.5,3.9 52.7,4.6 52.4,4.9 C52.2,5.2 51.5,5.2 50.9,4.8 Z" id="Shape"></path>
            </g>
            <polygon id="Shape" points="51.3 47.3 49 49.7 45.9 59.1 46 59.2 54.5 50.3"></polygon>
        </g>
    </g>
</svg>