<?xml version="1.0" encoding="UTF-8"?>
<svg width="94px" height="72px" viewBox="0 0 94 72" version="1.1" xmlns="http://www.w3.org/2000/svg" xmlns:xlink="http://www.w3.org/1999/xlink">
    <!-- Generator: Sketch 50.2 (55047) - http://www.bohemiancoding.com/sketch -->
    <title>rennrad</title>
    <desc>Created with Sketch.</desc>
    <defs></defs>
    <g id="Page-1" stroke="none" stroke-width="1" fill="none" fill-rule="evenodd">
        <g id="rennrad" transform="translate(47.000000, 34.000000) scale(-1, 1) translate(-47.000000, -34.000000) translate(0.000000, -4.000000)" fill="#2C7BB6" fill-rule="nonzero">
            <path d="M44.6,42.2 L48.3,44.2 L46.2,52.3 C45.8,53.8 46.3,55.4 47.4,56.4 L51,56.4 L55.6,49.6 L57.3,43.1 C57.6,41.9 57.4,40.6 56.6,39.6 L43.9,39.6 C44.1,40.4 44.4,41.3 44.6,42.2 Z" id="Shape"></path>
            <path d="M43.3,31.9 C42.7,32.4 42.1,33 41.5,33.6 C41.8,34.2 42.1,34.9 42.4,35.5 C42.4,35.5 42.4,35.5 42.4,35.5 L50,35.5 L43.3,31.9 Z" id="Shape"></path>
            <circle id="Oval" transform="translate(63.866020, 11.694160) rotate(-47.780267) translate(-63.866020, -11.694160) " cx="63.86602" cy="11.69416" r="7.60027496"></circle>
            <path d="M93.6,58.4 C93.6,48.8 85.8,41 76.2,41 C74.2,41 72.4,41.3 70.6,41.9 L72.3,45.5 C73.5,45.1 74.8,44.9 76.2,44.9 C83.6,44.9 89.7,50.9 89.7,58.4 C89.7,65.9 83.7,71.9 76.2,71.9 C68.7,71.9 62.7,65.9 62.7,58.4 C62.7,53.8 65,49.7 68.6,47.2 L66.9,43.6 C62,46.7 58.7,52.1 58.7,58.3 C58.7,67.9 66.5,75.7 76.1,75.7 C85.8,75.8 93.6,68 93.6,58.4 Z" id="Shape"></path>
            <path d="M34.9,60.8 C34.9,60.7 35,60.5 35,60.4 L34.7,60.4 L34.8,59.7 L35.2,59.7 C35.4,58.8 35.5,57.9 35.6,57 L35,57 L35.1,56.3 C34.5,51.2 31.8,46.8 27.8,44.1 L29.7,41.1 L31.1,38.9 L33.3,38.9 C32.7,37.5 32.2,36.7 31.9,36.3 C31.4,35.6 30.8,34.2 30.3,32.5 C27.6,32.8 25.6,33.7 25.6,34.8 C25.6,35.6 26.7,36.3 28.4,36.8 C28.6,36.9 28.9,36.9 29.1,37 L27.1,40.1 L25.4,42.8 C23.1,41.7 20.5,41 17.7,41 C8.1,41 0.3,48.8 0.3,58.4 C0.3,68 8.1,75.8 17.7,75.8 C26,75.8 33,70 34.7,62.2 C34.8,61.8 34.8,61.3 34.9,60.8 Z M31.2,57.1 L19.5,57.1 L25.6,47.5 C28.7,49.7 30.8,53.1 31.2,57.1 Z M17.8,71.9 C10.4,71.9 4.3,65.9 4.3,58.4 C4.3,50.9 10.4,45 17.8,45 C19.8,45 21.6,45.4 23.3,46.2 L15.9,57.8 C15.6,58.2 15.6,58.7 15.9,59.2 C16.1,59.6 16.6,59.9 17.1,59.9 L31.3,59.9 C30.6,66.6 24.8,71.9 17.8,71.9 Z" id="Shape"></path>
            <path d="M76.2,59.8 C76.4,59.8 76.6,59.8 76.8,59.7 C77.5,59.4 77.8,58.6 77.4,57.9 L68.3,38.7 C69.1,38.5 70.1,38.1 71.1,37.5 C73.4,36.1 76.2,33.4 78.4,28.5 C78.7,27.8 78.4,27 77.7,26.7 C77,26.4 76.2,26.7 75.9,27.4 C75.3,28.6 74.8,29.6 74.2,30.5 C74.4,31 74.6,31.6 74.5,32.2 C74.3,33.9 72.9,35.3 71.2,35.3 C71.1,35.3 71,35.3 70.9,35.3 C70.5,35.3 70.2,35.2 69.8,35.2 C69.8,35.2 69.7,35.2 69.7,35.3 C67.9,36.4 66.5,36.4 66.4,36.4 C66.4,36.4 66.4,36.4 66.4,36.4 C66.4,36.4 66.4,36.4 66.4,36.4 C66.4,36.4 66.4,36.4 66.4,36.4 L42.7,36.4 C43,37.2 43.3,38.1 43.7,39.1 L63.7,39.1 L51.2,57.1 L45.4,57.1 C45.3,58 45.2,58.9 45,59.8 L52,59.8 C52.4,59.8 52.9,59.6 53.1,59.2 L66.1,40.3 L75,59 C75.2,59.5 75.7,59.8 76.2,59.8 Z" id="Shape"></path>
            <path d="M45,52.1 C45,45.2 43.4,39.7 41.8,35.8 C41.4,34.9 41.1,34.2 40.7,33.5 C43.9,30.1 48.2,27.3 51.6,25.1 C49.4,22.6 48.1,20.5 47.9,20 C47.5,19.2 47.4,18.3 47.6,17.4 C47.9,16.5 48.4,15.8 49.2,15.4 C49.7,15.1 50.2,15 50.8,15 C52,15 53.2,15.7 53.8,16.8 L53.8,16.9 C53.8,17 53.9,17.1 54,17.2 C54.2,17.5 54.4,17.9 54.8,18.4 C55.2,18.9 55.7,19.7 56.4,20.5 C57,19.1 57.1,17.7 56.4,16.4 C54.9,13.8 50.9,12 46.2,14.2 C39.7,17.3 36.2,20.1 31.5,25.9 C29.3,29.2 31.4,34.5 32.5,36 C34,38.2 36.6,43.9 36.6,52.1 C36.6,54.8 36.3,57.8 35.6,61 C35.1,63.3 36.5,65.5 38.8,66 C39.1,66.1 39.4,66.1 39.7,66.1 C41.6,66.1 43.4,64.8 43.8,62.8 C44.7,59 45,55.4 45,52.1 Z" id="Shape"></path>
            <path d="M54.3,18.7 C53.9,18.2 53.6,17.7 53.5,17.5 C53.4,17.4 53.3,17.2 53.3,17.2 C53.3,17.2 53.3,17.1 53.3,17.1 C52.6,15.8 51,15.3 49.7,16 C48.4,16.7 47.9,18.3 48.6,19.6 C48.7,19.8 50.5,23 54.1,26.5 C57.7,30 63.4,33.7 71,34.4 C71.1,34.4 71.2,34.4 71.2,34.4 C72.6,34.4 73.8,33.3 73.9,31.9 C74,30.4 72.9,29.1 71.5,29 C65.4,28.5 60.9,25.5 57.8,22.6 C56.2,21.2 55.1,19.8 54.3,18.7 Z" id="Shape"></path>
        </g>
    </g>
</svg>